<svg width="26" height="28" viewBox="0 0 26 28" fill="none" xmlns="http://www.w3.org/2000/svg">
<path d="M17.8083 25.7051H17.8084V25.6978V21.6208C17.8084 20.8535 17.5012 20.119 16.9569 19.5786C16.4128 19.0385 15.6765 18.7364 14.9101 18.7364H11.0779C9.48417 18.7364 8.1797 20.0209 8.1797 21.6208V24.9753L8.14915 24.9855L8.14391 25.7023C8.14142 26.0447 7.85903 26.3333 7.49639 26.3333H4.94156C2.94191 26.3333 1.33333 24.726 1.33333 22.7586V11.1686C1.35272 10.4813 1.68121 9.8363 2.23252 9.41207L2.24011 9.40623L2.2476 9.40024L10.9388 2.44332L10.9526 2.43225L10.966 2.42069C12.1023 1.44316 13.7828 1.41272 14.9544 2.34901L14.9574 2.35141L23.8419 9.39549C24.366 9.83459 24.6667 10.4789 24.6667 11.1558V22.7704C24.6667 23.7146 24.2883 24.6215 23.6126 25.2905C22.9367 25.9597 22.0188 26.3358 21.061 26.3333H21.0584H18.4439C18.2722 26.3333 18.109 26.2652 17.9903 26.1464C17.8718 26.0279 17.8071 25.8689 17.8083 25.7051Z" fill="white" stroke="#666666" stroke-width="2"/>
</svg>
